<svg width="47" height="47" viewBox="0 0 47 47" fill="none" xmlns="http://www.w3.org/2000/svg">
<rect x="1" y="1" width="45" height="45" rx="6" fill="white"/>
<g filter="url(#filter0_d)">
<rect x="2" y="2" width="43" height="43" rx="6" fill="#3F51B5" fill-opacity="0.12"/>
</g>
<g filter="url(#filter1_d)">
<rect x="3" y="3" width="41" height="41" rx="6" fill="white"/>
</g>
<g filter="url(#filter2_d)">
<path d="M14.334 19.2256C11.6003 18.4398 9.60807 17.4769 8.35742 16.3369C7.11784 15.1859 6.49805 13.7692 6.49805 12.0869C6.49805 10.1833 7.25618 8.61165 8.77246 7.37207C10.2998 6.12142 12.2809 5.49609 14.7158 5.49609C16.376 5.49609 17.8535 5.81706 19.1484 6.45898C20.4544 7.10091 21.4616 7.98633 22.1699 9.11523C22.8893 10.2441 23.249 11.4782 23.249 12.8174H20.0449C20.0449 11.3564 19.5801 10.2109 18.6504 9.38086C17.7207 8.53971 16.4092 8.11914 14.7158 8.11914C13.1442 8.11914 11.9157 8.46777 11.0303 9.16504C10.1559 9.85124 9.71875 10.8086 9.71875 12.0371C9.71875 13.0221 10.1338 13.8577 10.9639 14.5439C11.805 15.2191 13.2272 15.8389 15.2305 16.4033C17.2448 16.9678 18.8164 17.5931 19.9453 18.2793C21.0853 18.9544 21.9264 19.7458 22.4688 20.6533C23.0221 21.5609 23.2988 22.6289 23.2988 23.8574C23.2988 25.8164 22.5352 27.388 21.0078 28.5723C19.4805 29.7454 17.4385 30.332 14.8818 30.332C13.2217 30.332 11.6722 30.0166 10.2334 29.3857C8.7946 28.7438 7.68229 27.8695 6.89648 26.7627C6.12174 25.6559 5.73438 24.3997 5.73438 22.9941H8.93848C8.93848 24.4551 9.47526 25.6117 10.5488 26.4639C11.6335 27.305 13.0778 27.7256 14.8818 27.7256C16.5641 27.7256 17.8535 27.3825 18.75 26.6963C19.6465 26.0101 20.0947 25.0749 20.0947 23.8906C20.0947 22.7064 19.6797 21.7933 18.8496 21.1514C18.0195 20.4984 16.5143 19.8564 14.334 19.2256Z" fill="#3F51B5"/>
</g>
<g filter="url(#filter3_d)">
<path d="M40.7637 41.5H37.5596L25.3906 22.873V41.5H22.1865V17.3281H25.3906L37.5928 36.0381V17.3281H40.7637V41.5Z" fill="#3F51B5"/>
</g>
<rect x="3" y="21" width="41" height="4" fill="white"/>
<path d="M4.56982 23.0493C4.32861 22.98 4.15283 22.895 4.04248 22.7944C3.93311 22.6929 3.87842 22.5679 3.87842 22.4194C3.87842 22.2515 3.94531 22.1128 4.0791 22.0034C4.21387 21.8931 4.38867 21.8379 4.60352 21.8379C4.75 21.8379 4.88037 21.8662 4.99463 21.9229C5.10986 21.9795 5.19873 22.0576 5.26123 22.1572C5.32471 22.2568 5.35645 22.3657 5.35645 22.4839H5.07373C5.07373 22.355 5.03271 22.2539 4.95068 22.1807C4.86865 22.1064 4.75293 22.0693 4.60352 22.0693C4.46484 22.0693 4.35645 22.1001 4.27832 22.1616C4.20117 22.2222 4.1626 22.3066 4.1626 22.415C4.1626 22.502 4.19922 22.5757 4.27246 22.6362C4.34668 22.6958 4.47217 22.7505 4.64893 22.8003C4.82666 22.8501 4.96533 22.9053 5.06494 22.9658C5.16553 23.0254 5.23975 23.0952 5.2876 23.1753C5.33643 23.2554 5.36084 23.3496 5.36084 23.458C5.36084 23.6309 5.29346 23.7695 5.15869 23.874C5.02393 23.9775 4.84375 24.0293 4.61816 24.0293C4.47168 24.0293 4.33496 24.0015 4.20801 23.9458C4.08105 23.8892 3.98291 23.812 3.91357 23.7144C3.84521 23.6167 3.81104 23.5059 3.81104 23.3818H4.09375C4.09375 23.5107 4.14111 23.6128 4.23584 23.688C4.33154 23.7622 4.45898 23.7993 4.61816 23.7993C4.7666 23.7993 4.88037 23.769 4.95947 23.7085C5.03857 23.6479 5.07812 23.5654 5.07812 23.4609C5.07812 23.3564 5.0415 23.2759 4.96826 23.2192C4.89502 23.1616 4.76221 23.105 4.56982 23.0493ZM7.1084 23.1929C7.1084 23.0376 7.13867 22.8979 7.19922 22.7739C7.26074 22.6499 7.3457 22.5542 7.4541 22.4868C7.56348 22.4194 7.68799 22.3857 7.82764 22.3857C8.04346 22.3857 8.21777 22.4604 8.35059 22.6099C8.48438 22.7593 8.55127 22.958 8.55127 23.2061V23.2251C8.55127 23.3794 8.52148 23.5181 8.46191 23.6411C8.40332 23.7632 8.31885 23.8584 8.2085 23.9268C8.09912 23.9951 7.97314 24.0293 7.83057 24.0293C7.61572 24.0293 7.44141 23.9546 7.30762 23.8052C7.1748 23.6558 7.1084 23.458 7.1084 23.2119V23.1929ZM7.38086 23.2251C7.38086 23.4009 7.42139 23.542 7.50244 23.6484C7.58447 23.7549 7.69385 23.8081 7.83057 23.8081C7.96826 23.8081 8.07764 23.7544 8.15869 23.647C8.23975 23.5386 8.28027 23.3872 8.28027 23.1929C8.28027 23.019 8.23877 22.8784 8.15576 22.771C8.07373 22.6626 7.96436 22.6084 7.82764 22.6084C7.69385 22.6084 7.58594 22.6616 7.50391 22.7681C7.42188 22.8745 7.38086 23.0269 7.38086 23.2251ZM11.0269 23.8081C11.1235 23.8081 11.208 23.7788 11.2803 23.7202C11.3525 23.6616 11.3926 23.5884 11.4004 23.5005H11.6567C11.6519 23.5913 11.6206 23.6777 11.563 23.7598C11.5054 23.8418 11.4282 23.9072 11.3315 23.9561C11.2358 24.0049 11.1343 24.0293 11.0269 24.0293C10.811 24.0293 10.6392 23.9575 10.5112 23.814C10.3843 23.6694 10.3208 23.4722 10.3208 23.2222V23.1768C10.3208 23.0225 10.3491 22.8853 10.4058 22.7651C10.4624 22.645 10.5435 22.5518 10.6489 22.4854C10.7554 22.4189 10.8809 22.3857 11.0254 22.3857C11.2031 22.3857 11.3506 22.439 11.4678 22.5454C11.5859 22.6519 11.6489 22.79 11.6567 22.96H11.4004C11.3926 22.8574 11.3535 22.7734 11.2832 22.708C11.2139 22.6416 11.1279 22.6084 11.0254 22.6084C10.8877 22.6084 10.7808 22.6582 10.7046 22.7578C10.6294 22.8564 10.5918 22.9995 10.5918 23.187V23.2383C10.5918 23.4209 10.6294 23.5615 10.7046 23.6602C10.7798 23.7588 10.8872 23.8081 11.0269 23.8081ZM13.7559 24H13.4849V22.415H13.7559V24ZM13.4629 21.9946C13.4629 21.9507 13.4761 21.9136 13.5024 21.8833C13.5298 21.853 13.5698 21.8379 13.6226 21.8379C13.6753 21.8379 13.7153 21.853 13.7427 21.8833C13.77 21.9136 13.7837 21.9507 13.7837 21.9946C13.7837 22.0386 13.77 22.0752 13.7427 22.1045C13.7153 22.1338 13.6753 22.1484 13.6226 22.1484C13.5698 22.1484 13.5298 22.1338 13.5024 22.1045C13.4761 22.0752 13.4629 22.0386 13.4629 21.9946ZM16.6694 24C16.6538 23.9688 16.6411 23.9131 16.6313 23.833C16.5054 23.9639 16.355 24.0293 16.1802 24.0293C16.0239 24.0293 15.8955 23.9854 15.7949 23.8975C15.6953 23.8086 15.6455 23.6963 15.6455 23.5605C15.6455 23.3955 15.708 23.2676 15.833 23.1768C15.959 23.085 16.1357 23.0391 16.3633 23.0391H16.627V22.9146C16.627 22.8198 16.5986 22.7446 16.542 22.689C16.4854 22.6323 16.4019 22.604 16.2915 22.604C16.1948 22.604 16.1138 22.6284 16.0483 22.6772C15.9829 22.7261 15.9502 22.7852 15.9502 22.8545H15.6777C15.6777 22.7754 15.7056 22.6992 15.7612 22.626C15.8179 22.5518 15.894 22.4932 15.9897 22.4502C16.0864 22.4072 16.1924 22.3857 16.3076 22.3857C16.4902 22.3857 16.6333 22.4316 16.7368 22.5234C16.8403 22.6143 16.894 22.7397 16.8979 22.8999V23.6294C16.8979 23.7749 16.9165 23.8906 16.9536 23.9766V24H16.6694ZM16.2197 23.7935C16.3047 23.7935 16.3853 23.7715 16.4614 23.7275C16.5376 23.6836 16.5928 23.6265 16.627 23.5562V23.231H16.4146C16.0825 23.231 15.9165 23.3281 15.9165 23.5225C15.9165 23.6074 15.9448 23.6738 16.0015 23.7217C16.0581 23.7695 16.1309 23.7935 16.2197 23.7935ZM19.1172 24H18.8462V21.75H19.1172V24ZM24.978 24H24.6953L23.6216 22.3564V24H23.3389V21.8672H23.6216L24.6982 23.5181V21.8672H24.978V24ZM27.5928 24.0293C27.3779 24.0293 27.2031 23.959 27.0684 23.8184C26.9336 23.6768 26.8662 23.4878 26.8662 23.2515V23.2017C26.8662 23.0444 26.896 22.9043 26.9556 22.7812C27.0161 22.6572 27.1001 22.5605 27.2075 22.4912C27.3159 22.4209 27.4331 22.3857 27.5591 22.3857C27.7651 22.3857 27.9253 22.4536 28.0396 22.5894C28.1538 22.7251 28.2109 22.9194 28.2109 23.1724V23.2852H27.1372C27.1411 23.4414 27.1865 23.5679 27.2734 23.6646C27.3613 23.7603 27.4727 23.8081 27.6074 23.8081C27.7031 23.8081 27.7842 23.7886 27.8506 23.7495C27.917 23.7104 27.9751 23.6587 28.0249 23.5942L28.1904 23.7231C28.0576 23.9272 27.8584 24.0293 27.5928 24.0293ZM27.5591 22.6084C27.4497 22.6084 27.3579 22.6484 27.2837 22.7285C27.2095 22.8076 27.1636 22.9189 27.146 23.0625H27.9399V23.042C27.9321 22.9043 27.895 22.7979 27.8286 22.7227C27.7622 22.6465 27.6724 22.6084 27.5591 22.6084ZM30.3936 22.0312V22.415H30.6895V22.6245H30.3936V23.6074C30.3936 23.6709 30.4067 23.7188 30.4331 23.751C30.4595 23.7822 30.5044 23.7979 30.5679 23.7979C30.5991 23.7979 30.6421 23.792 30.6968 23.7803V24C30.6255 24.0195 30.5562 24.0293 30.4888 24.0293C30.3677 24.0293 30.2764 23.9927 30.2148 23.9194C30.1533 23.8462 30.1226 23.7422 30.1226 23.6074V22.6245H29.834V22.415H30.1226V22.0312H30.3936ZM33.9106 23.6265L34.2153 22.415H34.4863L34.0249 24H33.8052L33.4199 22.7988L33.0449 24H32.8252L32.3652 22.415H32.6348L32.9468 23.6016L33.3159 22.415H33.5342L33.9106 23.6265ZM36.1914 23.1929C36.1914 23.0376 36.2217 22.8979 36.2822 22.7739C36.3438 22.6499 36.4287 22.5542 36.5371 22.4868C36.6465 22.4194 36.771 22.3857 36.9106 22.3857C37.1265 22.3857 37.3008 22.4604 37.4336 22.6099C37.5674 22.7593 37.6343 22.958 37.6343 23.2061V23.2251C37.6343 23.3794 37.6045 23.5181 37.5449 23.6411C37.4863 23.7632 37.4019 23.8584 37.2915 23.9268C37.1821 23.9951 37.0562 24.0293 36.9136 24.0293C36.6987 24.0293 36.5244 23.9546 36.3906 23.8052C36.2578 23.6558 36.1914 23.458 36.1914 23.2119V23.1929ZM36.4639 23.2251C36.4639 23.4009 36.5044 23.542 36.5854 23.6484C36.6675 23.7549 36.7769 23.8081 36.9136 23.8081C37.0513 23.8081 37.1606 23.7544 37.2417 23.647C37.3228 23.5386 37.3633 23.3872 37.3633 23.1929C37.3633 23.019 37.3218 22.8784 37.2388 22.771C37.1567 22.6626 37.0474 22.6084 36.9106 22.6084C36.7769 22.6084 36.6689 22.6616 36.5869 22.7681C36.5049 22.8745 36.4639 23.0269 36.4639 23.2251ZM40.2402 22.6582C40.1992 22.6514 40.1548 22.6479 40.1069 22.6479C39.9292 22.6479 39.8086 22.7236 39.7451 22.875V24H39.4741V22.415H39.7378L39.7422 22.5981C39.8311 22.4565 39.957 22.3857 40.1201 22.3857C40.1729 22.3857 40.2129 22.3926 40.2402 22.4062V22.6582ZM42.4331 23.2661L42.2632 23.4434V24H41.9922V21.75H42.2632V23.1108L42.4082 22.9365L42.9019 22.415H43.2314L42.6147 23.0771L43.3032 24H42.9854L42.4331 23.2661Z" fill="#3F51B5"/>
<defs>
<filter id="filter0_d" x="0" y="0" width="47" height="47" filterUnits="userSpaceOnUse" color-interpolation-filters="sRGB">
<feFlood flood-opacity="0" result="BackgroundImageFix"/>
<feColorMatrix in="SourceAlpha" type="matrix" values="0 0 0 0 0 0 0 0 0 0 0 0 0 0 0 0 0 0 127 0"/>
<feOffset/>
<feGaussianBlur stdDeviation="1"/>
<feColorMatrix type="matrix" values="0 0 0 0 0.247059 0 0 0 0 0.317647 0 0 0 0 0.709804 0 0 0 0.12 0"/>
<feBlend mode="normal" in2="BackgroundImageFix" result="effect1_dropShadow"/>
<feBlend mode="normal" in="SourceGraphic" in2="effect1_dropShadow" result="shape"/>
</filter>
<filter id="filter1_d" x="1" y="1" width="45" height="45" filterUnits="userSpaceOnUse" color-interpolation-filters="sRGB">
<feFlood flood-opacity="0" result="BackgroundImageFix"/>
<feColorMatrix in="SourceAlpha" type="matrix" values="0 0 0 0 0 0 0 0 0 0 0 0 0 0 0 0 0 0 127 0"/>
<feOffset/>
<feGaussianBlur stdDeviation="1"/>
<feColorMatrix type="matrix" values="0 0 0 0 0.247059 0 0 0 0 0.317647 0 0 0 0 0.709804 0 0 0 0.12 0"/>
<feBlend mode="normal" in2="BackgroundImageFix" result="effect1_dropShadow"/>
<feBlend mode="normal" in="SourceGraphic" in2="effect1_dropShadow" result="shape"/>
</filter>
<filter id="filter2_d" x="4.73438" y="4.49609" width="19.5645" height="26.8359" filterUnits="userSpaceOnUse" color-interpolation-filters="sRGB">
<feFlood flood-opacity="0" result="BackgroundImageFix"/>
<feColorMatrix in="SourceAlpha" type="matrix" values="0 0 0 0 0 0 0 0 0 0 0 0 0 0 0 0 0 0 127 0"/>
<feOffset/>
<feGaussianBlur stdDeviation="0.5"/>
<feColorMatrix type="matrix" values="0 0 0 0 0.247059 0 0 0 0 0.317647 0 0 0 0 0.709804 0 0 0 1 0"/>
<feBlend mode="normal" in2="BackgroundImageFix" result="effect1_dropShadow"/>
<feBlend mode="normal" in="SourceGraphic" in2="effect1_dropShadow" result="shape"/>
</filter>
<filter id="filter3_d" x="21.1865" y="16.3281" width="20.5771" height="26.1719" filterUnits="userSpaceOnUse" color-interpolation-filters="sRGB">
<feFlood flood-opacity="0" result="BackgroundImageFix"/>
<feColorMatrix in="SourceAlpha" type="matrix" values="0 0 0 0 0 0 0 0 0 0 0 0 0 0 0 0 0 0 127 0"/>
<feOffset/>
<feGaussianBlur stdDeviation="0.5"/>
<feColorMatrix type="matrix" values="0 0 0 0 0.247059 0 0 0 0 0.317647 0 0 0 0 0.709804 0 0 0 1 0"/>
<feBlend mode="normal" in2="BackgroundImageFix" result="effect1_dropShadow"/>
<feBlend mode="normal" in="SourceGraphic" in2="effect1_dropShadow" result="shape"/>
</filter>
</defs>
</svg>
